<?xml version="1.0" encoding="utf-8"?>
<!-- Generator: Adobe Illustrator 23.0.3, SVG Export Plug-In . SVG Version: 6.00 Build 0)  -->
<svg version="1.1" id="Layer_1" xmlns="http://www.w3.org/2000/svg" xmlns:xlink="http://www.w3.org/1999/xlink" x="0px" y="0px"
	 viewBox="0 0 90 90" style="enable-background:new 0 0 90 90;" xml:space="preserve">
<style type="text/css">
	.st0{fill:#80CBC4;}
	.st1{fill:#D6C5A1;}
	.st2{fill:#FFFFFF;}
</style>
<path class="st0" d="M78.41,90c0.15-1.47,0.23-9.15,0.23-10.67c0-15.13-7.61-28.22-18.67-34.54c-4,3.64-9.06,5.81-14.57,5.81
	c-5.66,0-10.84-2.29-14.89-6.1c-11.34,6.2-19.17,19.47-19.17,34.83c0,0.76,0.02,9.92,0.06,10.67c16.6,0,21.89,0,35.72,0
	C58.87,90,67,90,78.41,90z"/>
<ellipse class="st1" cx="45.79" cy="26.25" rx="18.72" ry="20.25"/>
<path class="st2" d="M44.99,65.2l9.24-16.74c-2.72,1.27-5.7,1.97-8.83,1.97c-2.96,0-5.79-0.63-8.4-1.78L44.99,65.2z"/>
</svg>
